<?xml version="1.0" encoding="UTF-8"?>
<svg id="a" data-name="Слой 2" xmlns="http://www.w3.org/2000/svg" xmlns:xlink="http://www.w3.org/1999/xlink" viewBox="0 0 64 64">
  <defs>
    <filter id="c" x="2" y="6" width="63.07" height="59.21" color-interpolation-filters="sRGB" filterUnits="userSpaceOnUse">
      <feColorMatrix result="cm" values="-1 0 0 0 1 0 -1 0 0 1 0 0 -1 0 1 0 0 0 1 0"/>
      <feFlood flood-color="#fff" result="bg"/>
      <feBlend in="cm" in2="bg"/>
    </filter>
    <mask id="b" data-name="mask" x="2" y="6" width="63.07" height="59.21" maskUnits="userSpaceOnUse">
      <g filter="url(#c)">
        <path d="M61.46,65.21c-.32,0-.63-.04-.94-.12-.93-.25-1.71-.85-2.19-1.68l-9.37-16.23c-.25.06-.5.09-.76.09-.11,0-.22,0-.32-.02-1.46-.15-2.63-1.21-2.93-2.62l-.18-.83-.84-.09c-1.44-.15-2.61-1.2-2.91-2.62-.3-1.42.34-2.86,1.59-3.58l.73-.42-.18-.82c-.3-1.42.34-2.86,1.6-3.58.51-.29,1.09-.45,1.67-.45.82,0,1.61.31,2.23.86l.62.56.73-.42c.51-.29,1.09-.45,1.67-.45.82,0,1.61.31,2.23.86,1.08.97,1.4,2.51.82,3.83l-.34.77.63.56c1.08.97,1.4,2.51.81,3.83-.15.35-.36.66-.61.92l9.37,16.22c.99,1.73.4,3.94-1.33,4.93-.54.32-1.17.48-1.8.48Z" fill="#fff" stroke-width="0"/>
      </g>
    </mask>
  </defs>
  <g mask="url(#b)">
    <g>
      <path d="M37.5,12.5c0-3.31,2.69-6,6-6H8.5c-3.31,0-6,2.69-6,6h35Z" fill="#b3b3b3" stroke="gray" stroke-miterlimit="10"/>
      <g>
        <path d="M44.63,6.55s-.02-.03-.03-.05c-11.92,0-23.83,0-35.75,0,3.31,0,7.94,2.69,8.72,6,3.21,13-9.34,26-6.13,39,.77,3.31,5.41,6,8.72,6h29c-10.16-15,7.12-30,3.41-45-.72-3.06-4.71-5.58-7.93-5.95Z" fill="#fff" stroke="gray" stroke-miterlimit="10"/>
        <path d="M34.18,13h-14c-.14-.67-.33-1.33-.56-2h14c.23.67.41,1.33.56,2Z" fill="gray" stroke-width="0"/>
        <path d="M46.24,21h-26c.11-.67.2-1.33.26-2h26c-.06.67-.15,1.33-.26,2Z" fill="gray" stroke-width="0"/>
        <path d="M49.33,25h-26c.19-.67.36-1.33.51-2h26c-.15.67-.33,1.33-.51,2Z" fill="gray" stroke-width="0"/>
        <path d="M48.06,29h-26c.23-.67.45-1.33.67-2h26c-.21.67-.44,1.33-.67,2Z" fill="gray" stroke-width="0"/>
        <path d="M46.64,33h-26c.24-.67.48-1.33.72-2,8.67,0,17.33,0,26,0-.24.67-.48,1.33-.72,2Z" fill="gray" stroke-width="0"/>
        <path d="M41.27,37H15.27c.21-.67.44-1.33.67-2h26c-.23.67-.45,1.33-.67,2Z" fill="gray" stroke-width="0"/>
        <path d="M40.16,41H14.16c.15-.67.33-1.33.51-2h26c-.19.67-.36,1.33-.51,2Z" fill="gray" stroke-width="0"/>
        <path d="M39.5,45H13.5c.06-.67.15-1.33.26-2h26c-.11.67-.2,1.33-.26,2Z" fill="gray" stroke-width="0"/>
        <path d="M27.5,49h-14c-.07-.67-.1-1.33-.1-2h14c0,.67.03,1.33.1,2Z" fill="gray" stroke-width="0"/>
        <path d="M17.04,26h34c.4-1.33.75-2.67,1.02-4H18.06c-.27,1.33-.62,2.67-1.02,4Z" fill="#ff1d25" opacity=".75" stroke-width="0"/>
        <path d="M15.71,30h34c.47-1.33.92-2.67,1.33-4H17.04c-.4,1.33-.86,2.67-1.33,4Z" fill="#7ac943" opacity=".75" stroke-width="0"/>
        <path d="M11.94,42h34c.27-1.33.62-2.67,1.02-4H12.96c-.4,1.33-.75,2.67-1.02,4Z" fill="#ff1d25" opacity=".75" stroke-width="0"/>
        <path d="M11.43,46h34c.06-1.33.24-2.67.51-4H11.94c-.27,1.33-.45,2.67-.51,4Z" fill="#7ac943" opacity=".75" stroke-width="0"/>
      </g>
      <path d="M26.5,51.5c0,3.31-2.69,6-6,6h35c3.31,0,6-2.69,6-6H26.5Z" fill="#ccc" stroke="gray" stroke-miterlimit="10"/>
    </g>
  </g>
  <g>
    <rect x="54.23" y="37.68" width="2.22" height="26.67" rx="1.11" ry="1.11" transform="translate(-18.09 34.51) rotate(-30)" fill="#8c6239" stroke="#603813" stroke-miterlimit="10"/>
    <path d="M46.99,34.95l1.53,1.38c.27.24.66.28.97.1l1.78-1.03c.7-.4,1.51.32,1.18,1.06l-.84,1.88c-.15.33-.06.72.2.96l1.53,1.38c.6.54.16,1.53-.64,1.45l-2.04-.21c-.36-.04-.7.16-.85.49l-.84,1.88c-.33.74-1.41.62-1.58-.17l-.43-2.01c-.08-.35-.37-.62-.73-.66l-2.04-.21c-.8-.08-1.03-1.15-.33-1.55l1.78-1.03c.31-.18.47-.54.4-.9l-.43-2.01c-.17-.79.77-1.33,1.37-.79Z" fill="#fbb03b" stroke="#f7931e" stroke-miterlimit="10"/>
  </g>
</svg>