<?xml version="1.0" encoding="UTF-8"?><svg id="a" xmlns="http://www.w3.org/2000/svg" xmlns:xlink="http://www.w3.org/1999/xlink" viewBox="0 0 64 64"><defs><filter id="c" x="2" y="4" width="63.88" height="61.21" color-interpolation-filters="sRGB" filterUnits="userSpaceOnUse"><feColorMatrix result="cm" values="-1 0 0 0 1 0 -1 0 0 1 0 0 -1 0 1 0 0 0 1 0"/><feFlood flood-color="#fff" result="bg"/><feBlend in="cm" in2="bg"/></filter><mask id="b" x="2" y="4" width="63.88" height="61.21" maskUnits="userSpaceOnUse"><g filter="url(#c)"><path d="M60.46,65.21c-.4,0-.8-.05-1.2-.16-1.19-.32-2.18-1.08-2.8-2.15l-9.03-15.65c-.08,0-.15,0-.23,0-.14,0-.28,0-.41-.02-1.9-.2-3.43-1.57-3.82-3.41l-.03-.12h-.12c-1.87-.21-3.39-1.57-3.79-3.42-.39-1.84.44-3.71,2.07-4.66l.1-.06-.02-.11c-.39-1.85.44-3.72,2.08-4.66.67-.38,1.42-.58,2.17-.58,1.07,0,2.1.4,2.9,1.12l.08.07.1-.06c.66-.38,1.42-.59,2.17-.59,1.07,0,2.09.4,2.89,1.12,1.4,1.26,1.83,3.26,1.06,4.98l-.05.11.09.08c1.4,1.27,1.82,3.27,1.06,4.98-.09.21-.2.41-.32.6l9.03,15.64c1.27,2.21.51,5.03-1.69,6.3-.7.4-1.49.62-2.3.62Z" fill="#fff" stroke-width="0"/><rect x="56.38" y="47.12" width="9.5" height="9.5" fill="#fff" stroke-width="0"/></g></mask></defs><g mask="url(#b)"><path d="M37,11c0-3.31,2.69-6,6-6H9c-3.31,0-6,2.69-6,6h34Z" fill="#ededed" stroke="#b2b2b2" stroke-miterlimit="10" stroke-width="2"/><path d="M43.71,5H9.71c3.31,0,7.92,2.69,8.72,6,3.59,14-10.45,28-6.86,42,.81,3.31,5.42,6,8.72,6,9.33,0,18.67,0,28,0-10.69-16,8.25-32,4.14-48-.81-3.31-5.42-6-8.72-6Z" fill="#fff" stroke="#b2b2b2" stroke-miterlimit="10" stroke-width="2"/><path d="M33.66,12h-12c-.13-.67-.3-1.33-.51-2h12c.21.67.38,1.33.51,2Z" fill="#b2b2b2" stroke-width="0"/><path d="M45.66,20h-24c.11-.67.2-1.33.26-2h24c-.06.67-.15,1.33-.26,2Z" fill="#b2b2b2" stroke-width="0"/><path d="M48.74,24h-24c.19-.67.36-1.33.51-2,8,0,16,0,24,0-.15.67-.33,1.33-.51,2Z" fill="#b2b2b2" stroke-width="0"/><path d="M47.46,28c-8,0-16,0-24,0,.23-.67.46-1.33.67-2h24c-.21.67-.44,1.33-.67,2Z" fill="#b2b2b2" stroke-width="0"/><path d="M46,32h-24c.25-.67.5-1.33.74-2,8,0,16,0,24,0-.25.67-.49,1.33-.74,2Z" fill="#b2b2b2" stroke-width="0"/><path d="M40.54,36h-24c.23-.67.47-1.33.72-2h24c-.25.67-.49,1.33-.72,2Z" fill="#b2b2b2" stroke-width="0"/><path d="M39.26,40H15.26c.19-.67.39-1.33.61-2h24c-.21.67-.42,1.33-.61,2Z" fill="#b2b2b2" stroke-width="0"/><path d="M38.34,44H14.34c.11-.67.25-1.33.4-2h24c-.15.67-.29,1.33-.4,2Z" fill="#b2b2b2" stroke-width="0"/><path d="M25.98,48h-12c0-.67.04-1.33.1-2h12c-.06.67-.1,1.33-.1,2Z" fill="#b2b2b2" stroke-width="0"/><path d="M18.45,25h32c.4-1.33.76-2.67,1.02-4H19.47c-.27,1.33-.62,2.67-1.02,4Z" fill="#e84133" opacity=".75" stroke-width="0"/><path d="M17.11,29h32c.48-1.33.94-2.67,1.34-4H18.45c-.4,1.33-.86,2.67-1.34,4Z" fill="#569782" opacity=".75" stroke-width="0"/><path d="M12.99,41h32c.34-1.33.76-2.67,1.21-4H14.19c-.45,1.33-.86,2.67-1.21,4Z" fill="#e84133" opacity=".75" stroke-width="0"/><path d="M12.19,45h32c.18-1.33.45-2.67.79-4H12.99c-.34,1.33-.62,2.67-.79,4Z" fill="#569782" opacity=".75" stroke-width="0"/><path d="M28,53c0,3.31-3.69,6-6,6h34c2.31,0,5-2.69,5-6H28Z" fill="#ededed" stroke="#b2b2b2" stroke-miterlimit="10" stroke-width="2"/></g><path d="M60.46,62.21c-.57,0-1.11-.31-1.4-.81l-12.22-21.17c-.44-.77-.18-1.76.59-2.2.25-.14.52-.22.81-.22.57,0,1.11.31,1.4.81l12.22,21.17c.44.77.18,1.76-.59,2.2-.25.14-.52.22-.8.22Z" fill="#b08f75" stroke="#a07958" stroke-miterlimit="10" stroke-width="2"/><path d="M47.21,44.27c-1.82.12-1.13-2.65-2.03-3.33-.93-.19-3.04.09-3.21-1.26-.39-1.31,1.64-1.91,2.42-2.46.43-.15-.29-2.09-.27-2.37-.31-1.22,1.3-2.14,2.2-1.27.13.1,1.6,1.52,1.75,1.46.03.06,1.88-1.04,1.95-1.07,1.06-.67,2.44.57,1.88,1.7-.05.29-1.13,2.02-.75,2.26.62.68,2.45,1.67,1.88,2.84-.49,1.67-2.86.19-3.77.83-.45.77-.82,2.79-2.05,2.67Z" fill="#f5a162" stroke="#f08262" stroke-miterlimit="10" stroke-width="2"/></svg>